<?xml version="1.0" encoding="UTF-8" standalone="no"?>
<!-- Created with Inkscape (http://www.inkscape.org/) -->

<svg
   xmlns:dc="http://purl.org/dc/elements/1.1/"
   xmlns:cc="http://creativecommons.org/ns#"
   xmlns:rdf="http://www.w3.org/1999/02/22-rdf-syntax-ns#"
   xmlns:svg="http://www.w3.org/2000/svg"
   xmlns="http://www.w3.org/2000/svg"
   xmlns:sodipodi="http://sodipodi.sourceforge.net/DTD/sodipodi-0.dtd"
   xmlns:inkscape="http://www.inkscape.org/namespaces/inkscape"
   width="1024"
   height="1024"
   id="svg4314"
   version="1.1"
   inkscape:version="0.92.3 (2405546, 2018-03-11)"
   sodipodi:docname="logo_blanco.svg"
   inkscape:export-filename="/home/oscar/Desktop/logo.png"
   inkscape:export-xdpi="180"
   inkscape:export-ydpi="180">
  <defs
     id="defs4316" />
  <sodipodi:namedview
     id="base"
     pagecolor="#ffffff"
     bordercolor="#666666"
     borderopacity="1.0"
     inkscape:pageopacity="0"
     inkscape:pageshadow="2"
     inkscape:zoom="0.49497475"
     inkscape:cx="422.44593"
     inkscape:cy="490.41297"
     inkscape:document-units="px"
     inkscape:current-layer="layer1"
     showgrid="false"
     fit-margin-top="0"
     fit-margin-left="0"
     fit-margin-right="0"
     fit-margin-bottom="0"
     inkscape:window-width="1920"
     inkscape:window-height="1005"
     inkscape:window-x="0"
     inkscape:window-y="0"
     inkscape:window-maximized="1"
     inkscape:pagecheckerboard="true" />
  <metadata
     id="metadata4319">
    <rdf:RDF>
      <cc:Work
         rdf:about="">
        <dc:format>image/svg+xml</dc:format>
        <dc:type
           rdf:resource="http://purl.org/dc/dcmitype/StillImage" />
        <dc:title></dc:title>
      </cc:Work>
    </rdf:RDF>
  </metadata>
  <g
     inkscape:label="Layer 1"
     inkscape:groupmode="layer"
     id="layer1"
     transform="translate(-360.33758,537.04478)">
    <g
       id="g177"
       style="fill:#ffffff"
       transform="translate(0,24)">
      <path
         d="m 478.41826,415.96996 c 9.82161,0 11.14405,-9.70513 11.14405,-26.9033 v -9.52613 c -11.52274,6.54682 -19.82812,16.81457 -19.82812,27.09511 0,6.72583 3.21096,9.33432 8.68407,9.33432 z M 489.18351,313.5993 c -2.26597,-0.56261 -4.52812,-0.93394 -7.7456,-0.93394 -13.0274,0 -17.56204,13.08084 -17.56204,26.34069 0,11.7638 1.32368,24.65284 13.59875,24.65284 6.23061,0 11.70889,-4.47536 11.70889,-12.88904 v -37.17106 z m -47.78178,97.8953 c 0,-13.64345 7.36691,-23.54039 19.82812,-32.51668 -15.29472,-2.23768 -28.89223,-16.80178 -28.89223,-39.60054 0,-32.13309 20.39948,-48.94766 49.47909,-48.94766 11.33143,0 27.01002,2.42949 38.71891,7.48025 v 72.66706 c 0,4.85896 -0.18615,16.62276 -0.56981,21.85254 -2.076,28.59116 -16.05221,45.95555 -44.57216,45.95555 -22.65635,0 -33.99171,-10.26775 -33.99171,-26.89052"
         style="fill:#ffffff;fill-opacity:1;fill-rule:nonzero;stroke:none;stroke-width:10.28517342"
         id="path342"
         inkscape:connector-curvature="0" />
      <path
         d="m 580.79154,312.29505 c -9.44281,0 -15.67342,9.15531 -16.2396,22.04435 10.19513,-0.56262 23.6065,-5.22978 23.6065,-14.38509 0,-4.67994 -2.8335,-7.65926 -7.3669,-7.65926 z m 34.74921,7.28845 c 0,27.08232 -30.97331,32.5039 -49.47899,33.61634 0.75181,8.41368 7.17549,15.31852 18.69823,15.31852 9.06412,0 17.36949,-3.91274 23.41395,-7.83827 l 8.31179,20.54829 c -0.94519,0.93395 -15.10858,10.63857 -36.26038,10.63857 -33.24062,0 -46.27319,-19.79387 -46.27319,-48.19323 0,-27.08232 16.24477,-53.244 48.54051,-53.244 19.82936,0 33.04808,9.52613 33.04808,29.15378"
         style="fill:#ffffff;fill-opacity:1;fill-rule:nonzero;stroke:none;stroke-width:10.28517342"
         id="path344"
         inkscape:connector-curvature="0" />
      <path
         d="m 678.44279,341.61505 c 0,-19.05224 -3.21231,-28.77017 -12.84643,-28.77017 -8.87156,0 -12.84126,9.90973 -12.84126,25.40726 0,16.07294 1.70238,30.82884 12.84126,30.82884 9.25542,0 12.84643,-9.15531 12.84643,-27.46593 z m -11.51892,-51.18533 c 15.10857,0 44.18819,4.48815 44.18819,48.38504 0,35.12518 -20.773,53.05219 -46.83297,53.05219 -27.01002,0 -43.62718,-16.06015 -43.62718,-50.06009 0,-39.22973 25.68644,-51.37714 46.27196,-51.37714"
         style="fill:#ffffff;fill-opacity:1;fill-rule:nonzero;stroke:none;stroke-width:10.28517342"
         id="path346"
         inkscape:connector-curvature="0" />
      <path
         d="m 724.53894,388.88764 v -76.41357 l -2.26732,-19.24405 h 26.05997 l 2.07983,10.08874 c 5.85315,-7.83827 13.59875,-12.88904 26.06131,-12.88904 10.95139,0 19.82802,3.73373 24.92884,12.32642 5.66577,-7.64647 13.7849,-12.32642 25.87259,-12.32642 18.50692,0 29.83711,10.28055 29.83711,33.06652 v 65.3914 h -31.53825 v -59.96982 c 0,-8.40089 -1.13113,-14.57689 -8.68542,-14.57689 -7.3668,0 -10.38644,5.7924 -10.38644,13.83526 v 60.71145 h -31.53825 v -59.96982 c 0,-8.22188 -0.75802,-14.57689 -8.50445,-14.57689 -7.55294,0 -10.38644,5.7924 -10.38644,14.01427 v 60.53244 h -31.53308"
         style="fill:#ffffff;fill-opacity:1;fill-rule:nonzero;stroke:none;stroke-width:10.28517342"
         id="path348"
         inkscape:connector-curvature="0" />
      <path
         d="m 927.01558,313.7911 c -2.08118,-0.75493 -5.29989,-1.31703 -8.69958,-1.31703 -12.2699,0 -16.42068,14.57689 -16.42068,30.63703 0,14.38509 2.64095,26.34069 13.58976,26.34069 7.36814,0 11.5305,-5.22977 11.5305,-10.63857 z m 31.34694,54.91906 2.06825,20.17748 h -26.80971 l -1.31851,-8.78449 -1.13754,-0.19231 c -5.66184,8.78449 -14.54239,11.77659 -24.36142,11.77659 -28.89864,0 -36.26037,-22.97778 -36.26037,-46.32637 0,-32.8875 16.80454,-54.93185 51.17247,-54.93185 6.8123,0 21.34176,1.68785 36.64683,7.48025 v 70.80019"
         style="fill:#ffffff;fill-opacity:1;fill-rule:nonzero;stroke:none;stroke-width:10.28517342"
         id="path350"
         inkscape:connector-curvature="0" />
      <path
         d="m 1009.3578,259.05106 v 34.17896 h 23.6169 v 24.47383 h -23.6169 v 37.74646 c 0,10.26775 4.9121,12.88904 11.3366,12.88904 3.5936,0 6.9933,-1.31704 10.1991,-2.9921 l 6.7994,19.61486 c -5.8558,3.73373 -16.2487,6.90484 -26.8227,6.90484 -32.09663,0 -33.42807,-18.48963 -33.42807,-37.17106 v -95.64483 h 31.91567"
         style="fill:#ffffff;fill-opacity:1;fill-rule:nonzero;stroke:none;stroke-width:10.28517342"
         id="path352"
         inkscape:connector-curvature="0" />
      <path
         d="m 1048.0858,388.88764 v -95.65762 h 31.7219 v 95.65762 z m 15.8609,-138.42927 c 10.0052,0 16.8046,6.90484 16.8046,15.49753 0,8.97629 -6.7994,15.51032 -16.8046,15.51032 -10.38,0 -16.8045,-6.53403 -16.8045,-15.51032 0,-8.59269 6.4245,-15.49753 16.8045,-15.49753"
         style="fill:#ffffff;fill-opacity:1;fill-rule:nonzero;stroke:none;stroke-width:10.28517342"
         id="path354"
         inkscape:connector-curvature="0" />
      <path
         d="m 1110.0429,362.35515 c 10.5739,0 16.0419,5.7924 16.0419,14.57689 0,8.40089 -5.287,14.93491 -15.4861,14.93491 -10.5739,0 -15.8609,-6.16321 -15.8609,-14.7559 0,-8.20909 5.6748,-14.7559 15.3051,-14.7559"
         style="fill:#ffffff;fill-opacity:1;fill-rule:nonzero;stroke:none;stroke-width:10.28517342"
         id="path356"
         inkscape:connector-curvature="0" />
      <path
         d="m 1207.4963,359.55485 11.1427,21.11092 c -8.6866,6.72582 -20.592,11.02217 -35.5093,11.02217 -28.3221,0 -46.0832,-17.00637 -46.0832,-49.51027 0,-36.99204 23.9917,-51.74795 46.652,-51.74795 13.5988,0 27.3785,4.48815 37.0217,19.43585 l -19.2735,16.25195 c -4.5243,-6.16321 -9.4364,-11.02217 -16.4297,-11.02217 -10.3929,0 -16.2358,9.15531 -16.2358,25.77807 0,16.62277 6.2306,26.14889 18.8858,26.14889 6.6054,0 12.0863,-2.04588 19.8293,-7.46746"
         style="fill:#ffffff;fill-opacity:1;fill-rule:nonzero;stroke:none;stroke-width:10.28517342"
         id="path358"
         inkscape:connector-curvature="0" />
      <path
         d="m 1279.0837,341.61505 c 0,-19.05224 -3.2187,-28.77017 -12.849,-28.77017 -8.8677,0 -12.8361,9.90973 -12.8361,25.40726 0,16.07294 1.6934,30.82884 12.8361,30.82884 9.2554,0 12.849,-9.15531 12.849,-27.46593 z m -11.5305,-51.18533 c 15.1111,0 44.1959,4.48815 44.1959,48.38504 0,35.12518 -20.773,53.05219 -46.8329,53.05219 -27.0037,0 -43.6272,-16.06015 -43.6272,-50.06009 0,-39.22973 25.6851,-51.37714 46.2642,-51.37714"
         style="fill:#ffffff;fill-opacity:1;fill-rule:nonzero;stroke:none;stroke-width:10.28517342"
         id="path360"
         inkscape:connector-curvature="0" />
      <path
         d="m 871.3912,-366.43802 c -31.08447,0 -56.28612,-24.92137 -56.28612,-55.67348 0,-30.75212 25.20165,-55.67348 56.28612,-55.67348 31.08458,0 56.28363,24.92136 56.28363,55.67348 0,30.75211 -25.19905,55.67348 -56.28363,55.67348 z m 0.84385,-158.60676 c -80.01941,0 -135.59332,67.25827 -101.74122,147.00918 32.27506,76.04276 101.74122,165.72897 101.74122,165.72897 0,0 54.26316,-72.80771 96.20988,-156.36907 41.80457,-83.28006 -16.19699,-156.36908 -96.20988,-156.36908"
         style="fill:#ffffff;fill-opacity:1;fill-rule:nonzero;stroke:none;stroke-width:10.28517342"
         id="path362"
         inkscape:connector-curvature="0" />
      <path
         d="m 671.42883,-218.34197 c -9.60962,29.24328 -41.35986,45.23949 -70.92427,35.73894 -29.56431,-9.50055 -45.74321,-40.90479 -36.13877,-70.14807 9.6031,-29.25606 41.35986,-45.25228 70.92417,-35.75173 29.56441,9.50055 45.74331,40.90479 36.13887,70.16086 z m -152.2414,-49.81715 c -24.72729,75.28834 22.77403,148.35179 109.90688,141.15285 83.0829,-6.86648 190.77809,-44.51065 190.77809,-44.51065 0,0 -53.23679,-73.54934 -120.61142,-138.82566 -67.14703,-65.05895 -155.34637,-33.09209 -180.07355,42.18346"
         style="fill:#ffffff;fill-opacity:1;fill-rule:nonzero;stroke:none;stroke-width:10.28517342"
         id="path364"
         inkscape:connector-curvature="0" />
      <path
         d="m 752.01307,15.540334 c 25.15118,18.067668 30.72512,52.885967 12.45088,77.768968 C 746.19612,118.17952 710.99572,123.6906 685.84454,105.62294 660.69843,87.542481 655.12449,52.724182 673.39232,27.853967 691.66667,2.9709666 726.86696,-2.5401194 752.01307,15.540334 Z M 657.08292,143.3694 c 64.73885,46.51817 149.66508,24.40989 169.66642,-59.778022 19.07186,-80.2879561 16.16855,-193.233248 16.16855,-193.233248 0,0 -87.16904,27.350838 -170.75225,70.55724 C 588.8603,3.993906 592.34924,96.838443 657.08292,143.3694"
         style="fill:#ffffff;fill-opacity:1;fill-rule:nonzero;stroke:none;stroke-width:10.28517342"
         id="path366"
         inkscape:connector-curvature="0" />
      <path
         d="m 1001.7829,11.998407 c 25.1551,-18.0804541 60.3541,-12.5693681 78.6194,12.313633 18.2781,24.883001 12.6939,59.701301 -12.4483,77.76897 -25.1551,18.08045 -60.3542,12.55658 -78.61942,-12.313635 -18.27817,-24.883001 -12.70682,-59.701301 12.44832,-77.768968 z m 93.5625,128.800853 c 64.7363,-46.518165 69.7259,-133.2506396 -5.0414,-178.080959 -71.29,-42.758867 -180.78976,-74.930311 -180.78976,-74.930311 0,0 -0.63081,90.466203 15.08407,182.454029 15.66701,91.668161 106.01079,117.088201 170.74709,70.557241"
         style="fill:#ffffff;fill-opacity:1;fill-rule:nonzero;stroke:none;stroke-width:10.28517342"
         id="path368"
         inkscape:connector-curvature="0" />
      <path
         d="m 1075.5677,-224.07043 c -9.6173,-29.24328 6.5667,-60.66031 36.1298,-70.16086 29.5631,-9.50055 61.3237,6.50845 70.9281,35.75173 9.6044,29.24328 -6.5796,60.64752 -36.1427,70.14807 -29.5631,9.50055 -61.3107,-6.49566 -70.9152,-35.73894 z m 152.7533,-48.21881 c -24.7285,-75.28834 -106.5666,-106.78209 -172.7765,-50.29026 -63.14632,53.85776 -127.90844,146.91967 -127.90844,146.91967 0,0 86.77604,28.5528 180.06714,42.19625 92.9937,13.59231 145.3464,-63.55011 120.6178,-138.82566"
         style="fill:#ffffff;fill-opacity:1;fill-rule:nonzero;stroke:none;stroke-width:10.28517342"
         id="path370"
         inkscape:connector-curvature="0" />
    </g>
  </g>
</svg>
